<svg width="25" height="1" viewBox="0 0 25 1" fill="none" xmlns="http://www.w3.org/2000/svg">
<path fill-rule="evenodd" clip-rule="evenodd" d="M0.5 0C0.223858 0 0 0.223858 0 0.5C0 0.776142 0.223858 1 0.5 1H3.5C3.77614 1 4 0.776142 4 0.5C4 0.223858 3.77614 0 3.5 0H0.5ZM7.5 0C7.22386 0 7 0.223858 7 0.5C7 0.776142 7.22386 1 7.5 1H10.5C10.7761 1 11 0.776142 11 0.5C11 0.223858 10.7761 0 10.5 0H7.5ZM14 0.5C14 0.223858 14.2239 0 14.5 0H17.5C17.7761 0 18 0.223858 18 0.5C18 0.776142 17.7761 1 17.5 1H14.5C14.2239 1 14 0.776142 14 0.5ZM21.5 0C21.2239 0 21 0.223858 21 0.5C21 0.776142 21.2239 1 21.5 1H24.5C24.7761 1 25 0.776142 25 0.5C25 0.223858 24.7761 0 24.5 0H21.5Z" fill="url(#paint0_linear_24_32082)"/>
<defs>
<linearGradient id="paint0_linear_24_32082" x1="24" y1="0.500022" x2="-1.5" y2="0.500015" gradientUnits="userSpaceOnUse">
<stop stop-color="white"/>
<stop offset="1" stop-color="white" stop-opacity="0"/>
</linearGradient>
</defs>
</svg>