<svg width="266" height="55" viewBox="0 0 266 55" fill="none" xmlns="http://www.w3.org/2000/svg">
    <path fill-rule="evenodd" clip-rule="evenodd"
        d="M81.7162 17.7227H66.1174V23.2227H74.6024C74.4503 23.8142 74.3732 24.4224 74.3729 25.0331L74.3292 38.9786V42.119H79.839V38.9924L79.8826 25.0506C79.8841 24.5653 80.0782 24.1004 80.4225 23.7577C80.7667 23.4151 81.2331 23.2227 81.7192 23.2227H88.1565V17.7227H81.7162ZM91.8503 34.7574V25.056C91.8526 23.1118 92.6273 21.2478 94.0045 19.873C95.3817 18.4982 97.249 17.7249 99.1967 17.7227H113.889V23.2227H99.1967C98.7096 23.2227 98.2425 23.4158 97.8981 23.7596C97.5536 24.1034 97.3601 24.5698 97.3601 25.056V27.1949H113.889V32.6949H97.3601V34.7574C97.3601 35.2436 97.5536 35.7099 97.8981 36.0537C98.2425 36.3976 98.7096 36.5907 99.1967 36.5907H113.889V42.0907H99.1967C97.249 42.0885 95.3817 41.3152 94.0045 39.9404C92.6273 38.5656 91.8526 36.7016 91.8503 34.7574ZM123.072 17.7227V34.7574C123.072 35.2436 123.266 35.7099 123.61 36.0537C123.955 36.3976 124.422 36.5907 124.909 36.5907H135.929V42.0907H124.909C122.961 42.0885 121.094 41.3152 119.717 39.9404C118.34 38.5656 117.565 36.7016 117.563 34.7574V17.7227H123.072ZM145.112 25.056C145.112 24.5698 145.305 24.1034 145.649 23.7596C145.994 23.4158 146.461 23.2227 146.948 23.2227H161.641V17.7227H146.948C145 17.7249 143.133 18.4982 141.756 19.873C140.379 21.2478 139.604 23.1118 139.602 25.056V34.7574C139.604 36.7016 140.379 38.5656 141.756 39.9404C143.133 41.3152 145 42.0885 146.948 42.0907H161.641V36.5907H146.948C146.461 36.5907 145.994 36.3976 145.649 36.0537C145.305 35.7099 145.112 35.2436 145.112 34.7574V32.6949L161.635 32.7308L161.647 27.2308L145.112 27.1949V25.056ZM165.314 17.7227H177.92C183.124 17.7227 187.356 21.6804 187.356 26.5456C187.356 31.4108 183.124 35.3685 177.92 35.3685H172.66C172.173 35.3685 171.706 35.5616 171.362 35.9055C171.017 36.2493 170.824 36.7156 170.824 37.2018V42.1671H165.314V17.7227ZM172.664 29.8685H177.92C180.082 29.8685 181.847 28.3781 181.847 26.5456C181.847 24.713 180.085 23.2227 177.92 23.2227H170.827V30.0977C171.427 29.9439 172.044 29.8669 172.664 29.8685ZM240.357 26.402C240.357 21.6185 236.393 17.7227 231.519 17.7227H218.269V42.1671H223.779V23.2227H231.519C233.355 23.2227 234.848 24.6488 234.848 26.402C234.848 28.1551 233.359 29.5767 231.528 29.5813L224.596 29.527L227.437 35.0232C228.55 37.1753 230.235 38.9802 232.307 40.2403C234.379 41.5003 236.758 42.1669 239.184 42.1671H240.296V36.6671H239.184C237.291 36.671 235.463 35.9771 234.051 34.7184C237.694 33.6467 240.357 30.3268 240.357 26.402ZM243.961 17.7227H260.97H266V23.2227H259.563C259.077 23.2227 258.61 23.4151 258.266 23.7577C257.922 24.1004 257.728 24.5653 257.726 25.0506L257.683 38.9924V42.119H252.173V38.9786L252.216 25.0331C252.217 24.4224 252.294 23.8142 252.446 23.2227H243.961V17.7227ZM202.465 17.7227H203.158C209.465 17.7227 214.596 22.8117 214.596 29.0664V30.747C214.596 37.0017 209.465 42.0907 203.158 42.0907H202.465C196.154 42.0907 191.026 37.0017 191.026 30.747V29.0664C191.026 22.8117 196.157 17.7227 202.465 17.7227ZM203.158 36.5907C206.407 36.5907 209.05 33.969 209.05 30.747V29.0664C209.05 25.8443 206.407 23.2227 203.158 23.2227H202.465C199.215 23.2227 196.572 25.8443 196.572 29.0664V30.747C196.572 33.969 199.215 36.5907 202.465 36.5907H203.158Z"
        fill="white" />
    <path fill-rule="evenodd" clip-rule="evenodd"
        d="M51.2316 22.1597C48.6913 20.6957 44.3498 23.1481 40.223 27.9321C41.891 26.6371 43.4402 26.1372 44.4833 26.7383C46.5914 27.9533 45.8338 33.2033 42.7908 38.4646C39.7478 43.7259 35.5719 47.0059 33.4638 45.7909C32.4206 45.1897 32.0798 43.6005 32.3693 41.511C30.2823 47.4706 30.3254 52.45 32.8656 53.914C36.3794 55.939 43.3391 50.4723 48.4107 41.7035C53.4824 32.9347 54.7453 24.1848 51.2316 22.1597Z"
        fill="url(#paint0_linear_18_6738)" />
    <path fill-rule="evenodd" clip-rule="evenodd"
        d="M12.8514 42.3808C9.3376 40.3558 10.6005 31.6058 15.6722 22.837C20.7439 14.0682 27.7035 8.6015 31.2173 10.6266C32.9636 11.633 33.5296 14.3011 33.0347 17.8061C35.4533 9.85367 35.0779 3.32526 31.5058 1.26658C26.2352 -1.77102 16.0013 6.07349 8.64732 18.7884C1.29329 31.5034 -0.39541 44.2727 4.87523 47.3103C8.44731 49.3689 14.2988 46.4293 19.9887 40.3622C17.1954 42.5425 14.5976 43.3873 12.8514 42.3808Z"
        fill="url(#paint1_linear_18_6738)" />
    <path
        d="M37.8591 32.4472L28.3159 26.9472C24.8022 24.9221 23.5983 20.4372 25.627 16.9297L35.1702 22.4297C38.6839 24.4548 39.8878 28.9397 37.8591 32.4472Z"
        fill="#00C6D2" />
    <path
        d="M25.0689 39.8945L15.5257 34.3945C17.5544 30.887 22.0473 29.6853 25.561 31.7103L35.1043 37.2103C33.0756 40.7179 28.5827 41.9196 25.0689 39.8945Z"
        fill="#00C6D2" />
    <defs>
        <linearGradient id="paint0_linear_18_6738" x1="32.7909" y1="54.0879" x2="49.8748" y2="23.1949"
            gradientUnits="userSpaceOnUse">
            <stop stop-color="#009EFD" />
            <stop offset="1" stop-color="#12EFCF" />
        </linearGradient>
        <linearGradient id="paint1_linear_18_6738" x1="34.9718" y1="2.10686" x2="8.2985" y2="49.5467"
            gradientUnits="userSpaceOnUse">
            <stop stop-color="#009EFD" />
            <stop offset="1" stop-color="#12EFCF" />
        </linearGradient>
    </defs>
</svg>